REM MD5 d592a2ab4f2abc5c28696d9846b78bc7
FILE "Euro Demo Germany 05-01 (Germany).bin" BINARY
  TRACK 01 MODE2/2352
    INDEX 01 00:00:00
  TRACK 02 AUDIO
    INDEX 00 42:18:19
    INDEX 01 42:20:19
  TRACK 03 AUDIO
    INDEX 00 46:00:27
    INDEX 01 46:02:27
REM LEADOUT 53:49:56
